<?xml version='1.0' encoding='iso-8859-1'?>
<svg version="1.1" xmlns="http://www.w3.org/2000/svg" fill="ffffff" viewBox="0 0 470 470" xmlns:xlink="http://www.w3.org/1999/xlink" enable-background="new 0 0 470 470">
  <g>
    <path d="m358.352,411.664v20.836c0,4.142 3.357,7.5 7.5,7.5h50.363c4.143,0 7.5-3.358 7.5-7.5v-20.836c0-18.021-14.661-32.682-32.682-32.682s-32.681,14.662-32.681,32.682zm50.363,0v13.336h-35.363v-13.336c0-9.75 7.932-17.682 17.682-17.682s17.681,7.933 17.681,17.682z"/>
    <path d="m435.133,50.139h-88.2c-19.226,0-34.867,15.642-34.867,34.867v92.065c0,18.25 12.715,37.359 28.948,43.504l19.257,7.288v129.191c-19.539,11.035-31.92,31.968-31.92,54.609v35.837c0,12.407 10.094,22.5 22.5,22.5h80.364c12.406,0 22.5-10.093 22.5-22.5v-35.836c0-22.641-12.381-43.574-31.92-54.609v-129.191l19.258-7.289c16.232-6.143 28.947-25.252 28.947-43.503v-92.066c0-19.225-15.642-34.867-34.867-34.867zm19.867,126.933c0,11.819-8.999,25.592-19.257,29.475l-24.104,9.123c-2.916,1.104-4.845,3.896-4.845,7.014v138.942c0,2.916 1.69,5.568 4.334,6.799 16.758,7.804 27.586,24.777 27.586,43.24v35.835c0,4.135-3.364,7.5-7.5,7.5h-80.364c-4.136,0-7.5-3.365-7.5-7.5v-35.836c0-18.464 10.828-35.437 27.586-43.24 2.644-1.231 4.334-3.883 4.334-6.799v-138.942c0-3.118-1.929-5.911-4.845-7.014l-24.103-9.122c-10.259-3.883-19.258-17.657-19.258-29.475v-92.066c0-10.955 8.912-19.867 19.867-19.867h88.2c10.955,0 19.867,8.913 19.867,19.867v92.066z"/>
    <path d="m432.5,80.139c-4.143,0-7.5,3.358-7.5,7.5v81.932h-27.229c-4.143,0-7.5,3.358-7.5,7.5s3.357,7.5 7.5,7.5h34.729c4.143,0 7.5-3.358 7.5-7.5v-89.432c0-4.142-3.357-7.5-7.5-7.5z"/>
    <path d="m367.771,169.571h-10.706v-81.932c0-4.142-3.357-7.5-7.5-7.5s-7.5,3.358-7.5,7.5v89.432c0,4.142 3.357,7.5 7.5,7.5h18.206c4.143,0 7.5-3.358 7.5-7.5s-3.358-7.5-7.5-7.5z"/>
    <path d="M148.95,0C66.819,0,0,66.819,0,148.95v99.144c0,9.887,6.413,18.299,15.295,21.31l9.323,193.457   c0.192,3.998,3.489,7.139,7.491,7.139h59.024c4.142,0,7.5-3.358,7.5-7.5V435h15v27.5c0,4.142,3.358,7.5,7.5,7.5h55.633   c4.142,0,7.5-3.358,7.5-7.5V435h15v27.5c0,4.142,3.358,7.5,7.5,7.5h59.024c4.002,0,7.299-3.142,7.491-7.139l9.323-193.457   c8.882-3.011,15.295-11.423,15.295-21.31V148.95C297.9,66.819,231.082,0,148.95,0z M275.4,255.594H78.805   c-4.142,0-7.5,3.358-7.5,7.5s3.358,7.5,7.5,7.5H267.53L258.644,455h-44.377v-27.5c0-4.142-3.358-7.5-7.5-7.5h-30   c-4.142,0-7.5,3.358-7.5,7.5V455h-40.633v-27.5c0-4.142-3.358-7.5-7.5-7.5h-30c-4.142,0-7.5,3.358-7.5,7.5V455H39.257   L30.37,270.594h18.435c4.142,0,7.5-3.358,7.5-7.5s-3.358-7.5-7.5-7.5H22.5c-4.135,0-7.5-3.365-7.5-7.5V217.07h267.9v31.023   C282.9,252.229,279.536,255.594,275.4,255.594z M282.9,202.07H15v-53.12C15,75.09,75.09,15,148.95,15S282.9,75.09,282.9,148.95   V202.07z"/>
    <path d="M148.95,30C83.361,30,30,83.361,30,148.95v30.62c0,4.142,3.358,7.5,7.5,7.5s7.5-3.358,7.5-7.5v-30.62   C45,91.632,91.632,45,148.95,45S252.9,91.632,252.9,148.95v30.62c0,4.142,3.357,7.5,7.5,7.5s7.5-3.358,7.5-7.5v-30.62   C267.9,83.361,214.54,30,148.95,30z"/>
  </g>
</svg>
