<?xml version='1.0' encoding='iso-8859-1'?>
<svg version="1.1" xmlns="http://www.w3.org/2000/svg" viewBox="0 0 319.143 319.143" xmlns:xlink="http://www.w3.org/1999/xlink" enable-background="new 0 0 319.143 319.143">
  <g>
    <path d="m56.618,58.569c2.51,3.705 6.079,6.568 10.24,8.217l11.344,4.493 10.212-25.782c2.769-6.991 7.523-12.916 13.749-17.134l4.399-2.981-20.145-7.979c-4.161-1.648-8.722-2.005-13.089-1.023l-34.144,7.675c-1.164,0.262-2.124,1.082-2.563,2.191s-0.302,2.364 0.368,3.352l19.629,28.971z"/>
    <path d="m167.5,70.014l39.964,15.828 7.018-17.719-48.247-19.109 1.165,5.184c1.181,5.253 1.193,10.623 0.1,15.816z"/>
    <path d="m155.468,101.887l7.017-17.718 39.445,15.621-7.017,17.718-39.445-15.621z"/>
    <path d="m301.43,100.982c-8.743-3.463-18.183-2.214-25.526,2.522-13.148-5.208-8.32-3.295-30.381-12.033l23.395-26.395c5.75-6.488 3.292-16.72-4.749-19.905l-9.529-3.774c-6.416-2.541-13.677,0.601-16.218,7.016l-39.548,99.852c-2.541,6.416 0.6,13.677 7.016,16.218l9.529,3.774c7.999,3.168 16.838-2.539 17.091-11.255l1.022-35.256c10.775,4.268 18.936,7.5 30.381,12.033 2.109,8.48 8.134,15.853 16.877,19.316 14.391,5.7 30.677-1.346 36.376-15.736 5.701-14.391-1.345-30.678-15.736-36.377z"/>
    <path d="m145.091,23.345c-0.262-1.164-1.082-2.123-2.191-2.563-0.429-0.17-0.88-0.253-1.328-0.253-0.712,0-1.418,0.21-2.024,0.621l-28.972,19.629c-3.705,2.511-6.568,6.079-8.216,10.24l-50.722,128.066 17.719,7.018 37.722-95.244c1.525-3.851 5.884-5.737 9.734-4.211 3.852,1.524 5.736,5.883 4.211,9.734l-37.722,95.244 17.718,7.018 50.722-128.066c1.648-4.161 2.005-8.722 1.023-13.089l-7.674-34.144z"/>
    <path d="m120.732,222.584l-99.852-39.548c-6.417-2.541-13.677,0.601-16.218,7.016l-3.774,9.529c-3.192,8.06 2.609,16.84 11.255,17.091l35.256,1.022c-9.252,23.36-4.013,10.132-12.033,30.381-8.48,2.109-15.853,8.134-19.316,16.877-5.7,14.391 1.346,30.677 15.736,36.377 14.391,5.7 30.677-1.346 36.377-15.737 3.463-8.743 2.214-18.183-2.522-25.526 8.035-20.288 2.779-7.015 12.033-30.381l26.395,23.395c6.456,5.723 16.701,3.34 19.905-4.75l3.774-9.529c2.541-6.415-0.6-13.676-7.016-16.217z"/>
  </g>
</svg>
